# xmcd
#
# Track frame offsets:
#	180
#	13200
#	24727
#	38605
#	51751
#	65770
#	78261
#	92539
#	99801
#	113854
#	121275
#	135185
#	149199
#	158128
#	170247
#	183052
#	193592
#	208358
#
# Disc length: 2889 seconds
#
# Revision: 2
# Processed by: cddbd v1.5.2PL0 Copyright (c) Steve Scherf et al.
# Submitted via: audiograbber 1.83.01
#
DISCID=f80b4712
DTITLE=Various Artist - Great Voices Of Entertainment -CD 05
DYEAR=1900
DGENRE=Swing
TTITLE0=Fred Astaire - I'd Rather Charleston
TTITLE1=Fred Astaire - Puttin' On The Ritz
TTITLE2=Judy Garland - All God's Chillun Got Rhythm
TTITLE3=Judy Garland - Zing! Wend The Strings Of My Heart
TTITLE4=Bing Crosby - Yes Indeed
TTITLE5=Frank Sinatra - You Might Have Belonged To Another
TTITLE6=Bing Crosby - The Waiter And The Porter And The Upstairs Maid
TTITLE7=Frank Sinatra - I'll Be Around
TTITLE8=Perry Como - Long Ago And Far Away
TTITLE9=Four Knights - Darktown Strutter's Ball
TTITLE10=Doris Day - Day By Day
TTITLE11=Doris Day - In The Moon Mist
TTITLE12=Four Knights - Rise, Shine
TTITLE13=Mel Tormé - But Beautiful
TTITLE14=Dean Martin - Walkin' My Baby Back Home
TTITLE15=Perry Como - I Wanna Go Home (with You)
TTITLE16=Mel Tormé - Bewitched
TTITLE17=Dean Martin - I Don't Care If The Sun Don't Shine
EXTD=CD 5 von 10
EXTT0=
EXTT1=
EXTT2=
EXTT3=
EXTT4=
EXTT5=
EXTT6=
EXTT7=
EXTT8=
EXTT9=
EXTT10=
EXTT11=
EXTT12=
EXTT13=
EXTT14=
EXTT15=
EXTT16=
EXTT17=
PLAYORDER=
